<svg width="3530" height="3530" viewBox="0 0 3530 3530" fill="none" xmlns="http://www.w3.org/2000/svg">
<path d="M3053.07 1072.93H928.798C687.523 1072.93 444.894 1262.79 386.878 1496.98L220.625 2168.12V865.821C220.625 725.63 252.771 620.039 317.063 549.057C382.179 477.185 472.435 441.25 587.828 441.25H937.728C980.584 441.25 1017.68 444.355 1049 450.566C1080.32 456.778 1109.17 467.425 1135.55 482.51C1161.92 496.706 1189.53 516.671 1218.39 542.402L1288.86 604.959C1323.47 634.236 1356.03 655.091 1386.53 667.512C1417.03 679.933 1454.53 686.144 1499.04 686.144H2648.88C2781.58 686.144 2882.14 722.966 2950.56 796.611C3011.92 861.883 3046.09 953.988 3053.07 1072.93Z" fill="#C83F49"/>
<path d="M626.194 2978.44C492.666 2978.44 401.161 2940.22 351.683 2863.78C301.976 2788.27 295.372 2676.84 331.873 2529.5L587.645 1496.99C619.007 1370.4 750.152 1267.77 880.575 1267.77H3242.06C3372.48 1267.77 3452.79 1370.4 3421.43 1496.99L3165.66 2529.5C3129.16 2676.84 3068.58 2788.27 2983.94 2863.78C2899.06 2940.22 2797.69 2978.44 2679.82 2978.44H626.194Z" fill="#2845C1"/>
<path d="M1826.66 2001.59C1826.66 2001.59 1908.65 1755.84 1883.74 1725.96M1899.72 2002.63C1899.72 2002.63 2006.82 1772.45 1955.97 1733.64M1983.78 2023.8C1983.78 2023.8 2120.35 1849.24 2038.99 1762.9M2043.35 2062.2C2043.35 2062.2 2221.02 1912.55 2124.71 1821.22M2088.18 2115.12C2088.18 2115.12 2249.04 2012.18 2197.56 1907.57M2109.77 2163.9C2109.77 2163.9 2235.17 2153.67 2241.81 2020.84M2122.22 2222.85C2122.22 2222.85 2176.59 2235.07 2243.01 2132.12M2120.56 2277.02C2120.56 2277.02 2153.93 2294.11 2224.5 2232.67M1794.07 1771.62C1794.07 1771.62 2066.04 1779.04 2162.54 1939.7C2213.74 2024.95 2236.72 2147.1 2183.18 2307.13M1783.12 1873.64C1783.12 1873.64 1993.26 1869.64 2103.13 2004.43C2170.37 2086.91 2171.47 2200.71 2141.6 2332.64M1917.37 1725.37C1917.37 1725.37 2003.83 1737.84 2073.76 1782.34C2136 1821.94 2203.99 1892.4 2233.91 1985.87C2256.35 2055.96 2250.68 2163.39 2211.67 2272.6M1772.17 2013.25C1779.01 2010.66 1858.75 1998.58 1904.83 2003.66C1996.89 2013.82 2106.7 2073.72 2122.38 2225.13C2125.88 2258.92 2118.94 2296.34 2103.69 2337.93" stroke="white" stroke-width="13.2283" stroke-linecap="round"/>
<path d="M1565.38 2316.39C1565.38 2316.39 1530.34 2300.41 1491.5 2297.87C1513.05 2271.41 1578.73 2217.41 1672.25 2216.3C1731.43 2215.61 1812.79 2256.44 1864.41 2315.95C1864.41 2315.95 1688.31 2237.83 1565.38 2316.39Z" stroke="white" stroke-width="13.2283" stroke-linecap="round"/>
<path d="M2227.84 2247.46C2211.73 2307.33 2145.61 2397.68 2045.06 2452.18C1941.17 2508.48 1797.92 2514.32 1671.43 2441.15C1568.56 2381.65 1489.36 2421.38 1489.36 2421.38C1489.36 2421.38 1533.83 2265.1 1708.47 2257.28C1849.03 2250.99 1836.29 2336.79 2008.27 2347.24C2143.08 2355.44 2227.84 2247.46 2227.84 2247.46Z" fill="white"/>
<path d="M2138.83 1534.98C2143.72 1573.89 2138.19 1600.31 2114.24 1631.21C2053.82 1702.05 1941.86 1730.73 1941.86 1730.73C1885.62 1745.29 1834.77 1791.97 1810.86 1844.92C1771.67 1931.72 1812.94 2013.46 1812.94 2013.46C1812.94 2013.46 1707.56 2049.49 1604.82 1973.76C1502.09 1898.03 1508.55 1781.2 1508.55 1781.2C1508.55 1781.2 1503.26 1684.34 1584.86 1607.43C1666.47 1530.53 1781.11 1534.3 1781.11 1534.3C1932.33 1534.3 2138.83 1534.98 2138.83 1534.98Z" fill="white"/>
<path d="M1509.29 2749H1398.69C1398.69 2740.94 1401.62 2733.91 1407.34 2728.2C1413.05 2722.49 1420.08 2719.56 1428.28 2719.56H1508.56C1516.32 2719.56 1523.21 2717.07 1529.21 2711.94C1536.39 2705.93 1539.9 2698.32 1539.9 2689.09C1539.9 2680.45 1536.97 2673.12 1530.97 2667.12C1524.96 2661.11 1517.79 2658.03 1509.29 2658.03H1455.24C1434 2655.98 1417.88 2646.17 1407.04 2628.59C1401.48 2619.36 1398.69 2609.11 1398.69 2597.97C1398.69 2581.13 1404.55 2566.92 1416.42 2555.35C1428.14 2543.48 1442.35 2537.62 1458.9 2537.62H1569.49C1569.49 2545.83 1566.56 2552.86 1560.85 2558.57C1555.14 2564.28 1548.11 2567.21 1540.05 2567.21H1458.9C1450.55 2567.21 1443.22 2570.29 1437.22 2576.29C1431.21 2582.3 1428.28 2589.48 1428.28 2597.97C1428.28 2606.03 1430.92 2612.92 1436.34 2618.63C1442.35 2625.22 1449.96 2628.59 1458.9 2628.59H1512.66C1534.04 2630.35 1550.16 2640.16 1561.14 2658.03V2658.18C1566.71 2667.41 1569.49 2677.66 1569.49 2688.79C1569.49 2700.07 1566.71 2710.33 1561.14 2719.56C1548.69 2739.19 1531.41 2749 1509.29 2749ZM1720.23 2749H1662.66C1643.03 2749 1626.18 2742.12 1612.27 2728.2C1598.35 2714.28 1591.47 2697.44 1591.47 2677.81C1591.47 2658.03 1598.35 2641.33 1612.27 2627.42C1626.18 2613.5 1643.03 2606.62 1662.66 2606.62C1682.29 2606.62 1699.13 2613.5 1713.05 2627.42C1722.86 2637.23 1729.31 2649.1 1732.38 2663.01C1733.41 2667.85 1733.85 2672.68 1733.85 2677.81C1733.85 2682.94 1733.41 2687.77 1732.38 2692.46H1628.38C1628.38 2684.4 1631.31 2677.37 1637.02 2671.66C1642.74 2665.94 1649.77 2663.01 1657.82 2663.01H1701.62C1699.43 2657.3 1696.35 2652.47 1692.1 2648.22C1684.04 2640.16 1674.23 2636.06 1662.66 2636.06C1651.09 2636.06 1641.27 2640.16 1633.21 2648.37C1625.16 2656.42 1621.06 2666.24 1621.06 2677.81C1621.06 2689.38 1625.16 2699.2 1633.21 2707.25C1641.27 2715.31 1651.09 2719.41 1662.66 2719.41H1690.78C1699.28 2719.41 1706.46 2722.49 1712.32 2728.79C1717.59 2734.5 1720.23 2741.24 1720.23 2749ZM1898.21 2749C1886.78 2749 1877.99 2743.73 1871.98 2733.03C1869.79 2728.93 1868.76 2724.39 1868.76 2719.56V2677.81C1868.76 2666.24 1864.66 2656.42 1856.46 2648.37C1848.4 2640.16 1838.59 2636.06 1827.01 2636.06C1815.44 2636.06 1805.63 2640.16 1797.57 2648.37C1789.51 2656.42 1785.41 2666.24 1785.41 2677.81C1785.41 2689.38 1789.51 2699.2 1797.57 2707.4C1805.63 2715.46 1815.44 2719.56 1827.01 2719.56H1839.17C1851.33 2719.56 1860.27 2725.42 1866.27 2737.28C1867.88 2740.94 1868.76 2744.75 1868.76 2749H1827.01C1803.28 2749 1784.09 2739.19 1769.3 2719.56C1760.36 2707.25 1755.82 2693.34 1755.82 2677.81C1755.82 2658.03 1762.71 2641.33 1776.62 2627.42C1790.54 2613.5 1807.38 2606.62 1827.01 2606.62H1830.68C1833.17 2606.76 1835.8 2607.06 1838.29 2607.5C1841.66 2607.94 1844.3 2608.52 1846.5 2609.25C1849.28 2609.99 1851.77 2610.87 1854.11 2611.89C1859.24 2614.09 1863.93 2616.72 1868.32 2619.8L1868.76 2620.09C1871.84 2622.29 1874.62 2624.78 1877.4 2627.42C1891.32 2641.33 1898.21 2658.03 1898.21 2677.81V2749ZM1949.62 2749C1941.56 2749 1934.53 2746.07 1928.82 2740.36C1923.11 2734.64 1920.18 2727.61 1920.18 2719.56V2521.36C1928.23 2521.36 1935.27 2524.29 1940.98 2530.01C1946.69 2535.72 1949.62 2542.75 1949.62 2550.95V2749ZM1971.74 2749V2636.06C1971.74 2628 1974.67 2620.97 1980.38 2615.26C1986.24 2609.55 1993.27 2606.62 2001.33 2606.62V2719.41C2001.33 2727.61 1998.4 2734.64 1992.69 2740.36C1986.97 2746.07 1979.94 2749 1971.74 2749ZM1971.74 2590.21V2580.25C1971.74 2572.19 1974.67 2565.16 1980.38 2559.45C1986.24 2553.74 1993.27 2550.81 2001.33 2550.81V2560.77C2001.33 2568.82 1998.4 2575.86 1992.69 2581.57C1986.97 2587.28 1979.94 2590.21 1971.74 2590.21ZM2094.64 2749C2074.87 2749 2058.02 2742.12 2044.1 2728.2C2030.19 2714.28 2023.3 2697.44 2023.3 2677.81C2023.3 2658.03 2030.19 2641.33 2044.1 2627.42C2058.02 2613.5 2074.87 2606.62 2094.64 2606.62C2114.27 2606.62 2130.97 2613.5 2144.88 2627.42C2158.8 2641.33 2165.83 2658.03 2165.83 2677.81C2165.83 2697.44 2158.8 2714.28 2144.88 2728.2C2130.97 2742.12 2114.27 2749 2094.64 2749ZM2094.64 2719.41C2106.07 2719.41 2115.88 2715.31 2123.94 2707.25C2132.14 2699.2 2136.24 2689.38 2136.24 2677.81C2136.24 2666.24 2132.14 2656.42 2123.94 2648.37C2115.88 2640.16 2106.07 2636.06 2094.64 2636.06C2083.07 2636.06 2073.25 2640.16 2065.05 2648.37C2056.99 2656.42 2052.89 2666.24 2052.89 2677.81C2052.89 2689.38 2056.99 2699.2 2065.05 2707.25C2073.25 2715.31 2083.07 2719.41 2094.64 2719.41ZM2330.33 2749C2322.28 2749 2315.25 2746.07 2309.53 2740.36C2303.82 2734.64 2300.89 2727.61 2300.89 2719.56V2677.81C2300.89 2666.09 2296.79 2656.28 2288.44 2648.22C2280.09 2640.16 2269.98 2636.21 2258.12 2636.21H2257.68C2246.11 2636.94 2236.44 2641.33 2228.82 2649.54C2221.2 2657.74 2217.39 2667.55 2217.39 2678.83V2719.56C2217.39 2727.61 2214.46 2734.64 2208.75 2740.36C2203.04 2746.07 2196.01 2749 2187.95 2749V2606.62C2196.01 2606.62 2203.04 2609.55 2208.75 2615.26C2210.95 2617.46 2212.71 2619.8 2214.17 2622.58C2227.06 2611.89 2242 2606.62 2259.14 2606.62C2278.77 2606.62 2295.47 2613.65 2309.39 2627.56C2323.3 2641.48 2330.33 2658.18 2330.33 2677.81V2749Z" fill="white"/>
</svg>
