<svg width="11121" height="3530" viewBox="0 0 11121 3530" fill="none" xmlns="http://www.w3.org/2000/svg">
<path d="M2795.83 1211.35H1096.19C903.141 1211.35 709.011 1363.22 662.593 1550.59L529.572 2087.49V1045.66C529.572 933.5 555.293 849.033 606.733 792.246C658.833 734.748 731.047 706 823.376 706H1103.33C1137.63 706 1167.3 708.484 1192.36 713.454C1217.42 718.422 1240.5 726.94 1261.61 739.007C1282.71 750.365 1304.8 766.337 1327.88 786.922L1384.27 836.966C1411.97 860.39 1438.03 877.071 1462.42 887.01C1486.83 896.947 1516.83 901.915 1552.45 901.915H2472.44C2578.62 901.915 2659.08 931.373 2713.81 990.289C2762.91 1042.51 2790.25 1116.19 2795.83 1211.35Z" fill="#C83F49"/>
<path d="M854.073 2735.76C747.234 2735.76 674.022 2705.19 634.433 2644.04C594.662 2583.62 589.379 2494.48 618.583 2376.61L823.228 1550.61C848.32 1449.33 953.256 1367.23 1057.61 1367.23H2947.05C3051.4 1367.23 3115.65 1449.33 3090.56 1550.61L2885.92 2376.61C2856.71 2494.48 2808.25 2583.62 2740.52 2644.04C2672.62 2705.19 2591.5 2735.76 2497.19 2735.76H854.073Z" fill="#2845C1"/>
<path d="M5729.18 1371.09C5821.68 1371.09 5904.16 1389.83 5976.56 1427.36C6044.8 1460.86 6101.58 1505.88 6146.86 1562.35C6152.92 1569.91 6151.34 1580.92 6143.62 1586.77L5997.66 1697.49C5989.51 1703.67 5977.87 1701.62 5971.68 1693.47C5947.45 1661.61 5916.18 1635.23 5877.95 1614.37C5835.05 1590.26 5784.76 1578.18 5727.11 1578.18C5680.21 1578.18 5636.64 1586.88 5596.44 1604.3C5557.57 1621.72 5524.01 1645.85 5495.86 1676.69C5467.7 1707.51 5445.57 1743.72 5429.48 1785.27C5413.4 1825.49 5405.35 1869.74 5405.35 1917.99C5405.35 1982.33 5419.44 2040.67 5447.59 2092.95C5475.74 2143.88 5513.96 2184.11 5562.22 2213.6C5610.49 2243.09 5666.81 2257.81 5731.16 2257.81C5786.13 2257.81 5835.05 2245.74 5877.95 2221.61C5916.18 2200.76 5947.45 2174.44 5971.68 2142.6C5977.87 2134.46 5989.51 2132.4 5997.66 2138.59L6143.48 2249.19C6151.25 2255.09 6152.79 2266.2 6146.61 2273.75C6101.37 2329.01 6044.66 2373.95 5976.56 2408.62C5904.16 2446.16 5821.68 2464.98 5729.18 2464.99C5615.21 2464.99 5516.66 2440.13 5433.53 2390.52C5350.41 2339.59 5286.05 2272.58 5240.46 2189.46C5196.22 2106.35 5174.1 2015.85 5174.1 1917.99C5174.1 1844.28 5186.82 1774.59 5212.28 1708.92C5237.75 1643.23 5274.68 1584.91 5322.95 1533.97C5371.21 1483.04 5429.47 1443.44 5497.83 1415.3C5566.22 1385.81 5643.37 1371.09 5729.18 1371.09Z" fill="#2845C1"/>
<path fill-rule="evenodd" clip-rule="evenodd" d="M8418.58 1371.09C8488.29 1371.09 8551.31 1382.44 8607.6 1405.21C8663.91 1428 8712.19 1459.55 8752.41 1499.76C8793.97 1539.97 8825.51 1587.59 8846.93 1642.55C8868.38 1697.51 8879.15 1757.15 8879.15 1821.47C8879.15 1845.6 8877.82 1869.09 8875.18 1891.88C8873.23 1908.38 8870.85 1922.77 8868.2 1935.06C8866.53 1942.84 8859.55 1948.15 8851.61 1948.15H8145.7C8135.45 1948.15 8127.33 1956.86 8128.41 1967.06C8134.05 2020.36 8146.94 2066.34 8167.24 2105.01C8195.39 2158.62 8234.91 2198.85 8285.84 2225.67C8336.79 2252.48 8394.47 2265.91 8458.83 2265.91C8519.16 2265.91 8573.48 2253.84 8621.74 2229.72C8665.24 2208.55 8700.98 2181.19 8729.01 2147.65C8735.44 2139.96 8746.87 2138.39 8754.71 2144.64L8885.94 2249.23C8893.36 2255.17 8894.77 2265.96 8888.86 2273.39C8843.4 2330.11 8785.84 2375.88 8716.21 2410.7C8641.13 2446.88 8555.99 2464.99 8460.82 2464.99C8342.83 2464.99 8242.27 2440.13 8159.14 2390.52C8076.03 2339.59 8012.37 2272.57 7968.13 2189.46C7923.89 2106.35 7901.77 2015.85 7901.77 1917.99C7901.77 1841.59 7913.11 1770.54 7935.9 1704.87C7960.03 1639.18 7994.22 1581.5 8038.47 1531.9C8082.71 1480.97 8137.03 1441.47 8201.37 1413.31C8265.73 1385.16 8338.14 1371.09 8418.58 1371.09ZM8412.55 1554.05C8353.56 1554.05 8301.91 1567.49 8257.66 1594.3C8214.78 1621.1 8181.92 1660.63 8159.14 1712.88C8151.75 1729.38 8145.65 1747.18 8140.69 1766.24C8137.88 1777.05 8146.27 1787.34 8157.46 1787.34H8643.43C8653.4 1787.34 8661.46 1779.08 8660.42 1769.17C8657.07 1737.37 8647.57 1707.24 8631.74 1678.75C8612.98 1641.23 8585.53 1611.05 8549.34 1588.26C8513.13 1565.48 8467.52 1554.05 8412.55 1554.05Z" fill="#2845C1"/>
<path d="M10132.9 1371.09C10206.6 1371.09 10275 1387.18 10338 1419.35C10396.6 1448.67 10443.7 1485.21 10478.9 1529C10484.7 1536.19 10483.4 1546.61 10476.4 1552.6L10352.5 1658.31C10344.7 1664.97 10332.9 1663.55 10326.4 1655.58C10303.5 1627.42 10277.2 1603.63 10247.6 1584.21C10212.7 1561.43 10174.5 1550 10132.9 1550C10103.4 1550.01 10077.9 1555.4 10056.5 1566.11C10036.4 1576.84 10021 1590.92 10010.2 1608.35C10000.9 1625.77 9996.19 1645.24 9996.19 1666.69C9996.19 1698.84 10007.6 1725.66 10030.3 1747.09C10054.4 1767.21 10085.3 1784.66 10122.8 1799.41C10160.4 1814.15 10199.9 1830.25 10241.5 1847.67C10284.4 1863.76 10324.6 1883.86 10362.1 1908C10399.7 1930.79 10429.9 1961.59 10452.7 2000.47C10476.8 2037.99 10488.9 2085.56 10488.9 2143.19C10488.9 2211.54 10472.1 2269.88 10438.6 2318.13C10406.4 2365.04 10363.5 2401.26 10310 2426.73C10256.3 2452.19 10197.3 2464.99 10132.9 2464.99C10045.8 2464.99 9969.98 2448.88 9905.64 2416.73C9846.41 2385.85 9793.9 2345.24 9748.26 2295C9741.73 2287.85 9742.53 2276.81 9749.85 2270.43L9873.68 2161.44C9881.28 2154.78 9892.84 2155.82 9899.37 2163.45C9928.58 2197.27 9960.8 2225.41 9996.19 2247.81C10036.4 2273.27 10081.3 2285.99 10130.9 2285.99C10177.8 2285.99 10213.4 2273.92 10237.5 2249.79C10263 2224.33 10275.7 2193.5 10275.7 2157.32C10275.7 2123.82 10263.6 2097.02 10239.5 2076.91C10216.7 2056.81 10186.6 2039.34 10149 2024.61C10111.5 2009.86 10071.2 1994.41 10028.3 1978.32C9986.75 1960.9 9947.21 1940.14 9909.61 1916.01C9872.1 1891.89 9841.29 1861.06 9817.2 1823.54C9794.34 1784.66 9782.95 1735.03 9782.95 1674.7C9782.95 1618.4 9797.78 1567.48 9827.26 1521.91C9856.74 1474.98 9897.6 1438.06 9949.86 1411.25C10003.5 1384.44 10064.5 1371.09 10132.9 1371.09Z" fill="#2845C1"/>
<path d="M4589.71 1206.67C4589.71 1216.41 4581.8 1224.32 4572.05 1224.32H4060.29C4050.54 1224.32 4042.63 1232.22 4042.63 1241.97V1586.65C4042.63 1596.39 4050.54 1604.3 4060.29 1604.3H4491.55C4501.3 1604.3 4509.2 1612.2 4509.2 1621.95V1793.82C4509.2 1803.57 4501.3 1811.47 4491.55 1811.47H4060.29C4050.54 1811.47 4042.63 1819.38 4042.63 1829.12V2407.09C4042.63 2416.84 4034.73 2424.74 4024.98 2424.74H3812.91C3803.16 2424.74 3795.26 2416.84 3795.26 2407.09V1034.78C3795.26 1025.04 3803.16 1017.13 3812.91 1017.13H4572.05C4581.8 1017.13 4589.71 1025.04 4589.71 1034.78V1206.67Z" fill="#2845C1"/>
<path d="M4984.12 2407.09C4984.12 2416.84 4976.22 2424.74 4966.47 2424.74H4780.61C4770.86 2424.74 4762.96 2416.84 4762.96 2407.09V1428.9C4762.96 1419.15 4770.86 1411.25 4780.61 1411.25H4966.47C4976.22 1411.25 4984.12 1419.15 4984.12 1428.9V2407.09Z" fill="#2845C1"/>
<path d="M6528.97 1481.59C6528.97 1489.55 6538.77 1493.54 6544.56 1488.09C6577.82 1456.73 6616.17 1430.44 6659.63 1409.26C6711.93 1383.8 6772.99 1371.09 6842.71 1371.09C6917.78 1371.09 6984.82 1387.82 7043.8 1421.33C7104.13 1454.85 7151.76 1504.48 7186.62 1570.16C7221.46 1635.85 7238.85 1718.32 7238.85 1817.51V2407.09C7238.85 2416.84 7230.95 2424.74 7221.2 2424.74H7033.26C7023.52 2424.74 7015.61 2416.84 7015.61 2407.09V1825.52C7015.61 1747.76 6995.5 1687.44 6955.28 1644.54C6915.05 1600.31 6860.1 1578.18 6790.39 1578.18C6746.16 1578.18 6707.29 1586.88 6673.77 1604.3C6640.25 1620.38 6611.36 1641.22 6587.23 1666.69C6566.1 1690.31 6547.87 1715.09 6532.5 1741.02C6530.15 1744.98 6528.97 1749.52 6528.97 1754.13V2407.09C6528.97 2416.84 6521.06 2424.74 6511.32 2424.74H6325.36C6315.62 2424.74 6307.71 2416.84 6307.71 2407.09V934.303C6307.71 924.551 6315.62 916.653 6325.36 916.653H6511.32C6521.06 916.653 6528.97 924.551 6528.97 934.303V1481.59Z" fill="#2845C1"/>
<path d="M7711.8 2407.09C7711.8 2416.84 7703.9 2424.74 7694.14 2424.74H7508.28C7498.53 2424.74 7490.63 2416.84 7490.63 2407.09V1428.9C7490.63 1419.15 7498.53 1411.25 7508.28 1411.25H7694.14C7703.9 1411.25 7711.8 1419.15 7711.8 1428.9V2407.09Z" fill="#2845C1"/>
<path d="M9585.24 1391.16C9602.63 1391.16 9618.69 1392.53 9633.43 1395.21C9643.41 1397.02 9652.76 1399.12 9661.5 1401.52C9668.83 1403.54 9673.68 1410.34 9673.68 1417.94V1599.79C9673.68 1611.27 9662.83 1619.7 9651.62 1617.41C9642.44 1615.54 9632.99 1613.87 9623.37 1612.4C9607.31 1609.72 9587.8 1608.35 9565.03 1608.35C9523.46 1608.35 9485.95 1615.03 9452.5 1628.42C9420.28 1641.83 9392.13 1659.94 9368.03 1682.72C9350.2 1698.57 9334.49 1715.9 9321.08 1734.68C9311.81 1747.69 9307.66 1763.56 9307.66 1779.56V2407.09C9307.66 2416.84 9299.8 2424.74 9290.01 2424.74H9104.04C9094.33 2424.74 9086.39 2416.84 9086.39 2407.09V1428.9C9086.39 1419.15 9094.33 1411.25 9104.04 1411.25H9290.01C9299.8 1411.25 9307.66 1419.15 9307.66 1428.9V1499.89C9307.66 1507.93 9317.63 1511.85 9323.28 1506.13C9334.49 1494.75 9346.05 1483.91 9357.88 1473.64C9387.45 1448.17 9420.99 1428.06 9458.5 1413.31C9496.01 1398.57 9538.29 1391.16 9585.24 1391.16Z" fill="#2845C1"/>
<path d="M4875.53 904.58C4902.32 904.58 4926.48 911.269 4947.93 924.666C4970.72 938.071 4988.18 956.171 5000.24 978.957C5013.65 1000.41 5020.33 1024.54 5020.33 1051.35C5020.33 1078.16 5013.65 1102.94 5000.24 1125.73C4988.18 1148.51 4970.72 1166.61 4947.93 1180.02C4926.48 1192.08 4902.33 1198.12 4875.53 1198.12C4848.72 1198.11 4823.92 1192.08 4801.14 1180.02C4778.35 1166.61 4760.24 1148.51 4746.83 1125.73C4733.44 1102.95 4726.75 1078.15 4726.75 1051.35C4726.75 1011.13 4740.83 976.945 4768.99 948.793C4798.47 919.318 4833.98 904.598 4875.53 904.58Z" fill="#2845C1"/>
<path d="M7603.2 904.58C7630 904.58 7654.14 911.261 7675.6 924.666C7698.39 938.071 7715.85 956.171 7727.91 978.957C7741.32 1000.4 7748 1024.55 7748 1051.35C7748 1078.15 7741.31 1102.95 7727.91 1125.73C7715.85 1148.51 7698.39 1166.61 7675.6 1180.02C7654.14 1192.08 7630 1198.12 7603.2 1198.12C7576.38 1198.12 7551.6 1192.08 7528.81 1180.02C7506.01 1166.61 7487.92 1148.51 7474.5 1125.73C7461.11 1102.94 7454.42 1078.16 7454.42 1051.35C7454.42 1011.13 7468.5 976.945 7496.66 948.793C7526.15 919.318 7561.64 904.589 7603.2 904.58Z" fill="#2845C1"/>
<path d="M1806.66 1921.59C1806.66 1921.59 1888.65 1675.84 1863.74 1645.96M1879.72 1922.63C1879.72 1922.63 1986.82 1692.45 1935.97 1653.64M1963.78 1943.8C1963.78 1943.8 2100.35 1769.24 2018.99 1682.9M2023.35 1982.2C2023.35 1982.2 2201.02 1832.55 2104.71 1741.22M2068.18 2035.12C2068.18 2035.12 2229.04 1932.18 2177.56 1827.57M2089.77 2083.9C2089.77 2083.9 2215.17 2073.67 2221.81 1940.84M2102.22 2142.85C2102.22 2142.85 2156.59 2155.07 2223.01 2052.12M2100.56 2197.02C2100.56 2197.02 2133.93 2214.11 2204.5 2152.67M1774.07 1691.62C1774.07 1691.62 2046.04 1699.04 2142.54 1859.7C2193.74 1944.95 2216.72 2067.1 2163.18 2227.13M1763.12 1793.64C1763.12 1793.64 1973.26 1789.64 2083.13 1924.43C2150.37 2006.91 2151.47 2120.71 2121.6 2252.64M1897.37 1645.37C1897.37 1645.37 1983.83 1657.84 2053.76 1702.34C2116 1741.94 2183.99 1812.4 2213.91 1905.87C2236.35 1975.96 2230.68 2083.39 2191.67 2192.6M1752.17 1933.25C1759.01 1930.66 1838.75 1918.58 1884.83 1923.66C1976.89 1933.82 2086.7 1993.72 2102.38 2145.13C2105.88 2178.92 2098.94 2216.34 2083.69 2257.93" stroke="white" stroke-width="13.2283" stroke-linecap="round"/>
<path d="M1545.38 2236.39C1545.38 2236.39 1510.34 2220.41 1471.5 2217.87C1493.05 2191.41 1558.73 2137.41 1652.25 2136.3C1711.43 2135.61 1792.79 2176.44 1844.41 2235.95C1844.41 2235.95 1668.31 2157.83 1545.38 2236.39Z" stroke="white" stroke-width="13.2283" stroke-linecap="round"/>
<path d="M2207.84 2167.46C2191.73 2227.33 2125.61 2317.68 2025.06 2372.18C1921.17 2428.48 1777.92 2434.32 1651.43 2361.15C1548.56 2301.65 1469.36 2341.38 1469.36 2341.38C1469.36 2341.38 1513.83 2185.1 1688.47 2177.28C1829.03 2170.99 1816.29 2256.79 1988.27 2267.24C2123.08 2275.44 2207.84 2167.46 2207.84 2167.46Z" fill="white"/>
<path d="M2118.83 1454.98C2123.72 1493.89 2118.19 1520.31 2094.24 1551.21C2033.82 1622.05 1921.86 1650.73 1921.86 1650.73C1865.62 1665.29 1814.77 1711.97 1790.86 1764.92C1751.67 1851.72 1792.94 1933.46 1792.94 1933.46C1792.94 1933.46 1687.56 1969.49 1584.82 1893.76C1482.09 1818.03 1488.55 1701.2 1488.55 1701.2C1488.55 1701.2 1483.26 1604.34 1564.86 1527.43C1646.47 1450.53 1761.11 1454.3 1761.11 1454.3C1912.33 1454.3 2118.83 1454.98 2118.83 1454.98Z" fill="white"/>
<path d="M1489.29 2669H1378.69C1378.69 2660.94 1381.62 2653.91 1387.34 2648.2C1393.05 2642.49 1400.08 2639.56 1408.28 2639.56H1488.56C1496.32 2639.56 1503.21 2637.07 1509.21 2631.94C1516.39 2625.93 1519.9 2618.32 1519.9 2609.09C1519.9 2600.45 1516.97 2593.12 1510.97 2587.12C1504.96 2581.11 1497.79 2578.03 1489.29 2578.03H1435.24C1414 2575.98 1397.88 2566.17 1387.04 2548.59C1381.48 2539.36 1378.69 2529.11 1378.69 2517.97C1378.69 2501.13 1384.55 2486.92 1396.42 2475.35C1408.14 2463.48 1422.35 2457.62 1438.9 2457.62H1549.49C1549.49 2465.83 1546.56 2472.86 1540.85 2478.57C1535.14 2484.28 1528.11 2487.21 1520.05 2487.21H1438.9C1430.55 2487.21 1423.22 2490.29 1417.22 2496.29C1411.21 2502.3 1408.28 2509.48 1408.28 2517.97C1408.28 2526.03 1410.92 2532.92 1416.34 2538.63C1422.35 2545.22 1429.96 2548.59 1438.9 2548.59H1492.66C1514.04 2550.35 1530.16 2560.16 1541.14 2578.03V2578.18C1546.71 2587.41 1549.49 2597.66 1549.49 2608.79C1549.49 2620.07 1546.71 2630.33 1541.14 2639.56C1528.69 2659.19 1511.41 2669 1489.29 2669ZM1700.23 2669H1642.66C1623.03 2669 1606.18 2662.12 1592.27 2648.2C1578.35 2634.28 1571.47 2617.44 1571.47 2597.81C1571.47 2578.03 1578.35 2561.33 1592.27 2547.42C1606.18 2533.5 1623.03 2526.62 1642.66 2526.62C1662.29 2526.62 1679.13 2533.5 1693.05 2547.42C1702.86 2557.23 1709.31 2569.1 1712.38 2583.01C1713.41 2587.85 1713.85 2592.68 1713.85 2597.81C1713.85 2602.94 1713.41 2607.77 1712.38 2612.46H1608.38C1608.38 2604.4 1611.31 2597.37 1617.02 2591.66C1622.74 2585.94 1629.77 2583.01 1637.82 2583.01H1681.62C1679.43 2577.3 1676.35 2572.47 1672.1 2568.22C1664.04 2560.16 1654.23 2556.06 1642.66 2556.06C1631.09 2556.06 1621.27 2560.16 1613.21 2568.37C1605.16 2576.42 1601.06 2586.24 1601.06 2597.81C1601.06 2609.38 1605.16 2619.2 1613.21 2627.25C1621.27 2635.31 1631.09 2639.41 1642.66 2639.41H1670.78C1679.28 2639.41 1686.46 2642.49 1692.32 2648.79C1697.59 2654.5 1700.23 2661.24 1700.23 2669ZM1878.21 2669C1866.78 2669 1857.99 2663.73 1851.98 2653.03C1849.79 2648.93 1848.76 2644.39 1848.76 2639.56V2597.81C1848.76 2586.24 1844.66 2576.42 1836.46 2568.37C1828.4 2560.16 1818.59 2556.06 1807.01 2556.06C1795.44 2556.06 1785.63 2560.16 1777.57 2568.37C1769.51 2576.42 1765.41 2586.24 1765.41 2597.81C1765.41 2609.38 1769.51 2619.2 1777.57 2627.4C1785.63 2635.46 1795.44 2639.56 1807.01 2639.56H1819.17C1831.33 2639.56 1840.27 2645.42 1846.27 2657.28C1847.88 2660.94 1848.76 2664.75 1848.76 2669H1807.01C1783.28 2669 1764.09 2659.19 1749.3 2639.56C1740.36 2627.25 1735.82 2613.34 1735.82 2597.81C1735.82 2578.03 1742.71 2561.33 1756.62 2547.42C1770.54 2533.5 1787.38 2526.62 1807.01 2526.62H1810.68C1813.17 2526.76 1815.8 2527.06 1818.29 2527.5C1821.66 2527.94 1824.3 2528.52 1826.5 2529.25C1829.28 2529.99 1831.77 2530.87 1834.11 2531.89C1839.24 2534.09 1843.93 2536.72 1848.32 2539.8L1848.76 2540.09C1851.84 2542.29 1854.62 2544.78 1857.4 2547.42C1871.32 2561.33 1878.21 2578.03 1878.21 2597.81V2669ZM1929.62 2669C1921.56 2669 1914.53 2666.07 1908.82 2660.36C1903.11 2654.64 1900.18 2647.61 1900.18 2639.56V2441.36C1908.23 2441.36 1915.27 2444.29 1920.98 2450.01C1926.69 2455.72 1929.62 2462.75 1929.62 2470.95V2669ZM1951.74 2669V2556.06C1951.74 2548 1954.67 2540.97 1960.38 2535.26C1966.24 2529.55 1973.27 2526.62 1981.33 2526.62V2639.41C1981.33 2647.61 1978.4 2654.64 1972.69 2660.36C1966.97 2666.07 1959.94 2669 1951.74 2669ZM1951.74 2510.21V2500.25C1951.74 2492.19 1954.67 2485.16 1960.38 2479.45C1966.24 2473.74 1973.27 2470.81 1981.33 2470.81V2480.77C1981.33 2488.82 1978.4 2495.86 1972.69 2501.57C1966.97 2507.28 1959.94 2510.21 1951.74 2510.21ZM2074.64 2669C2054.87 2669 2038.02 2662.12 2024.1 2648.2C2010.19 2634.28 2003.3 2617.44 2003.3 2597.81C2003.3 2578.03 2010.19 2561.33 2024.1 2547.42C2038.02 2533.5 2054.87 2526.62 2074.64 2526.62C2094.27 2526.62 2110.97 2533.5 2124.88 2547.42C2138.8 2561.33 2145.83 2578.03 2145.83 2597.81C2145.83 2617.44 2138.8 2634.28 2124.88 2648.2C2110.97 2662.12 2094.27 2669 2074.64 2669ZM2074.64 2639.41C2086.07 2639.41 2095.88 2635.31 2103.94 2627.25C2112.14 2619.2 2116.24 2609.38 2116.24 2597.81C2116.24 2586.24 2112.14 2576.42 2103.94 2568.37C2095.88 2560.16 2086.07 2556.06 2074.64 2556.06C2063.07 2556.06 2053.25 2560.16 2045.05 2568.37C2036.99 2576.42 2032.89 2586.24 2032.89 2597.81C2032.89 2609.38 2036.99 2619.2 2045.05 2627.25C2053.25 2635.31 2063.07 2639.41 2074.64 2639.41ZM2310.33 2669C2302.28 2669 2295.25 2666.07 2289.53 2660.36C2283.82 2654.64 2280.89 2647.61 2280.89 2639.56V2597.81C2280.89 2586.09 2276.79 2576.28 2268.44 2568.22C2260.09 2560.16 2249.98 2556.21 2238.12 2556.21H2237.68C2226.11 2556.94 2216.44 2561.33 2208.82 2569.54C2201.2 2577.74 2197.39 2587.55 2197.39 2598.83V2639.56C2197.39 2647.61 2194.46 2654.64 2188.75 2660.36C2183.04 2666.07 2176.01 2669 2167.95 2669V2526.62C2176.01 2526.62 2183.04 2529.55 2188.75 2535.26C2190.95 2537.46 2192.71 2539.8 2194.17 2542.58C2207.06 2531.89 2222 2526.62 2239.14 2526.62C2258.77 2526.62 2275.47 2533.65 2289.39 2547.56C2303.3 2561.48 2310.33 2578.18 2310.33 2597.81V2669Z" fill="white"/>
</svg>
